<?xml version="1.0" standalone="no"?>
<!DOCTYPE svg PUBLIC "-//W3C//DTD SVG 20010904//EN"
 "http://www.w3.org/TR/2001/REC-SVG-20010904/DTD/svg10.dtd">
<svg version="1.0" xmlns="http://www.w3.org/2000/svg"
 width="874.000000pt" height="1544.000000pt" viewBox="0 0 874.000000 1544.000000"
 preserveAspectRatio="xMidYMid meet">

<g transform="translate(0.000000,1544.000000) scale(0.100000,-0.100000)"
fill="#000000" stroke="none">
<path d="M3220 14830 l0 -120 105 0 105 0 0 120 0 120 -105 0 -105 0 0 -120z"/>
<path d="M3460 14830 l0 -120 105 0 105 0 0 120 0 120 -105 0 -105 0 0 -120z"/>
<path d="M3700 14830 l0 -120 105 0 105 0 0 120 0 120 -105 0 -105 0 0 -120z"/>
<path d="M3940 14830 l0 -120 105 0 105 0 0 120 0 120 -105 0 -105 0 0 -120z"/>
<path d="M4180 14830 l0 -120 105 0 105 0 0 120 0 120 -105 0 -105 0 0 -120z"/>
<path d="M4520 14820 l0 -120 105 0 105 0 0 120 0 120 -105 0 -105 0 0 -120z"/>
<path d="M4760 14820 l0 -120 105 0 105 0 0 120 0 120 -105 0 -105 0 0 -120z"/>
<path d="M5000 14820 l0 -120 105 0 105 0 0 120 0 120 -105 0 -105 0 0 -120z"/>
<path d="M5250 14820 l0 -120 105 0 105 0 0 120 0 120 -105 0 -105 0 0 -120z"/>
<path d="M5490 14820 l0 -120 105 0 105 0 0 120 0 120 -105 0 -105 0 0 -120z"/>
<path d="M5730 14820 l0 -120 105 0 105 0 0 120 0 120 -105 0 -105 0 0 -120z"/>
<path d="M5970 14820 l0 -120 105 0 105 0 0 120 0 120 -105 0 -105 0 0 -120z"/>
<path d="M6210 14820 l0 -120 105 0 105 0 0 120 0 120 -105 0 -105 0 0 -120z"/>
<path d="M6450 14820 l0 -120 105 0 105 0 0 120 0 120 -105 0 -105 0 0 -120z"/>
<path d="M6690 14820 l0 -120 105 0 105 0 0 120 0 120 -105 0 -105 0 0 -120z"/>
<path d="M6930 14820 l0 -120 105 0 105 0 0 120 0 120 -105 0 -105 0 0 -120z"/>
<path d="M7170 14820 l0 -120 105 0 105 0 0 120 0 120 -105 0 -105 0 0 -120z"/>
<path d="M7410 14820 l0 -120 105 0 105 0 0 120 0 120 -105 0 -105 0 0 -120z"/>
<path d="M7650 14820 l0 -120 105 0 105 0 0 120 0 120 -105 0 -105 0 0 -120z"/>
<path d="M7950 14665 l0 -105 120 0 120 0 0 105 0 105 -120 0 -120 0 0 -105z"/>
<path d="M2840 14575 l0 -105 120 0 120 0 0 105 0 105 -120 0 -120 0 0 -105z"/>
<path d="M7950 14425 l0 -105 120 0 120 0 0 105 0 105 -120 0 -120 0 0 -105z"/>
<path d="M2840 14335 l0 -105 120 0 120 0 0 105 0 105 -120 0 -120 0 0 -105z"/>
<path d="M7950 14185 l0 -105 120 0 120 0 0 105 0 105 -120 0 -120 0 0 -105z"/>
<path d="M2840 14095 l0 -105 120 0 120 0 0 105 0 105 -120 0 -120 0 0 -105z"/>
<path d="M7950 13945 l0 -105 120 0 120 0 0 105 0 105 -120 0 -120 0 0 -105z"/>
<path d="M2840 13855 l0 -105 120 0 120 0 0 105 0 105 -120 0 -120 0 0 -105z"/>
<path d="M7950 13705 l0 -105 120 0 120 0 0 105 0 105 -120 0 -120 0 0 -105z"/>
<path d="M3500 13630 l0 -120 105 0 105 0 0 120 0 120 -105 0 -105 0 0 -120z"/>
<path d="M3740 13630 l0 -120 105 0 105 0 0 120 0 120 -105 0 -105 0 0 -120z"/>
<path d="M3980 13630 l0 -120 105 0 105 0 0 120 0 120 -105 0 -105 0 0 -120z"/>
<path d="M4220 13630 l0 -120 105 0 105 0 0 120 0 120 -105 0 -105 0 0 -120z"/>
<path d="M4460 13630 l0 -120 105 0 105 0 0 120 0 120 -105 0 -105 0 0 -120z"/>
<path d="M4980 13630 l0 -120 105 0 105 0 0 120 0 120 -105 0 -105 0 0 -120z"/>
<path d="M5220 13630 l0 -120 105 0 105 0 0 120 0 120 -105 0 -105 0 0 -120z"/>
<path d="M5460 13630 l0 -120 105 0 105 0 0 120 0 120 -105 0 -105 0 0 -120z"/>
<path d="M5700 13630 l0 -120 105 0 105 0 0 120 0 120 -105 0 -105 0 0 -120z"/>
<path d="M5940 13630 l0 -120 105 0 105 0 0 120 0 120 -105 0 -105 0 0 -120z"/>
<path d="M6410 13630 l0 -120 105 0 105 0 0 120 0 120 -105 0 -105 0 0 -120z"/>
<path d="M6650 13630 l0 -120 105 0 105 0 0 120 0 120 -105 0 -105 0 0 -120z"/>
<path d="M6890 13630 l0 -120 105 0 105 0 0 120 0 120 -105 0 -105 0 0 -120z"/>
<path d="M2840 13615 l0 -105 120 0 120 0 0 105 0 105 -120 0 -120 0 0 -105z"/>
<path d="M7950 13465 l0 -105 120 0 120 0 0 105 0 105 -120 0 -120 0 0 -105z"/>
<path d="M2840 13375 l0 -105 120 0 120 0 0 105 0 105 -120 0 -120 0 0 -105z"/>
<path d="M3500 13360 l0 -120 105 0 105 0 0 120 0 120 -105 0 -105 0 0 -120z"/>
<path d="M3740 13360 l0 -120 105 0 105 0 0 120 0 120 -105 0 -105 0 0 -120z"/>
<path d="M3980 13360 l0 -120 105 0 105 0 0 120 0 120 -105 0 -105 0 0 -120z"/>
<path d="M4220 13360 l0 -120 105 0 105 0 0 120 0 120 -105 0 -105 0 0 -120z"/>
<path d="M4460 13360 l0 -120 105 0 105 0 0 120 0 120 -105 0 -105 0 0 -120z"/>
<path d="M4980 13360 l0 -120 105 0 105 0 0 120 0 120 -105 0 -105 0 0 -120z"/>
<path d="M5220 13360 l0 -120 105 0 105 0 0 120 0 120 -105 0 -105 0 0 -120z"/>
<path d="M5460 13360 l0 -120 105 0 105 0 0 120 0 120 -105 0 -105 0 0 -120z"/>
<path d="M5700 13360 l0 -120 105 0 105 0 0 120 0 120 -105 0 -105 0 0 -120z"/>
<path d="M5940 13360 l0 -120 105 0 105 0 0 120 0 120 -105 0 -105 0 0 -120z"/>
<path d="M6410 13360 l0 -120 105 0 105 0 0 120 0 120 -105 0 -105 0 0 -120z"/>
<path d="M6650 13360 l0 -120 105 0 105 0 0 120 0 120 -105 0 -105 0 0 -120z"/>
<path d="M6890 13360 l0 -120 105 0 105 0 0 120 0 120 -105 0 -105 0 0 -120z"/>
<path d="M7950 13225 l0 -105 120 0 120 0 0 105 0 105 -120 0 -120 0 0 -105z"/>
<path d="M2840 13135 l0 -105 120 0 120 0 0 105 0 105 -120 0 -120 0 0 -105z"/>
<path d="M7950 12985 l0 -105 120 0 120 0 0 105 0 105 -120 0 -120 0 0 -105z"/>
<path d="M2840 12895 l0 -105 120 0 120 0 0 105 0 105 -120 0 -120 0 0 -105z"/>
<path d="M7950 12745 l0 -105 120 0 120 0 0 105 0 105 -120 0 -120 0 0 -105z"/>
<path d="M2840 12655 l0 -105 120 0 120 0 0 105 0 105 -120 0 -120 0 0 -105z"/>
<path d="M7950 12495 l0 -105 120 0 120 0 0 105 0 105 -120 0 -120 0 0 -105z"/>
<path d="M2840 12405 l0 -105 120 0 120 0 0 105 0 105 -120 0 -120 0 0 -105z"/>
<path d="M7950 12255 l0 -105 120 0 120 0 0 105 0 105 -120 0 -120 0 0 -105z"/>
<path d="M4090 12224 c-299 -18 -608 -61 -804 -113 -416 -110 -532 -284 -287
-432 l65 -39 -45 0 c-71 0 -304 -37 -437 -70 -288 -70 -552 -202 -705 -352
-299 -293 -252 -639 123 -909 200 -145 517 -255 877 -306 164 -23 572 -23 736
0 642 91 1092 358 1182 703 65 251 -102 517 -436 694 l-90 47 243 6 c797 21
1349 171 1374 373 22 173 -346 316 -976 379 -148 15 -677 27 -820 19z m626
-55 c532 -31 958 -133 1085 -260 64 -64 49 -114 -53 -180 -140 -90 -438 -164
-828 -204 -189 -20 -727 -31 -787 -17 -42 10 -43 9 -43 -17 0 -23 8 -29 63
-50 88 -33 257 -123 325 -172 103 -76 188 -172 234 -266 42 -85 43 -89 43
-188 0 -99 -1 -103 -43 -188 -50 -101 -115 -175 -224 -257 -201 -150 -492
-257 -841 -312 -205 -32 -597 -32 -804 0 -593 92 -1016 344 -1099 656 -97 365
342 726 1028 845 133 23 367 45 403 39 22 -5 25 -2 25 21 0 23 -7 29 -65 49
-92 33 -182 94 -202 137 -15 32 -16 37 0 69 38 80 222 162 482 216 369 76 852
106 1301 79z"/>
<path d="M7950 12015 l0 -105 120 0 120 0 0 105 0 105 -120 0 -120 0 0 -105z"/>
<path d="M8237 11853 c-4 -3 -7 -19 -7 -34 l0 -29 -187 -2 -188 -3 0 -85 0
-85 188 -3 187 -2 0 -31 c0 -16 6 -32 13 -35 17 -6 386 123 407 142 24 23 -1
36 -203 108 -197 69 -200 70 -210 59z m313 -153 c0 -3 -60 -26 -134 -52 l-135
-47 -3 27 -3 27 -187 3 -188 2 0 40 0 40 188 2 187 3 3 27 3 27 135 -47 c73
-26 134 -49 134 -52z"/>
<path d="M7980 11325 l0 -105 120 0 120 0 0 105 0 105 -120 0 -120 0 0 -105z"/>
<path d="M4990 11245 l0 -105 120 0 120 0 0 105 0 105 -120 0 -120 0 0 -105z"/>
<path d="M6480 11215 l0 -105 120 0 120 0 0 105 0 105 -120 0 -120 0 0 -105z"/>
<path d="M6750 11215 l0 -105 120 0 120 0 0 105 0 105 -120 0 -120 0 0 -105z"/>
<path d="M7980 11085 l0 -105 120 0 120 0 0 105 0 105 -120 0 -120 0 0 -105z"/>
<path d="M4990 11005 l0 -105 120 0 120 0 0 105 0 105 -120 0 -120 0 0 -105z"/>
<path d="M6480 10975 l0 -105 120 0 120 0 0 105 0 105 -120 0 -120 0 0 -105z"/>
<path d="M6750 10975 l0 -105 120 0 120 0 0 105 0 105 -120 0 -120 0 0 -105z"/>
<path d="M7980 10845 l0 -105 120 0 120 0 0 105 0 105 -120 0 -120 0 0 -105z"/>
<path d="M4990 10765 l0 -105 120 0 120 0 0 105 0 105 -120 0 -120 0 0 -105z"/>
<path d="M6480 10735 l0 -105 120 0 120 0 0 105 0 105 -120 0 -120 0 0 -105z"/>
<path d="M6750 10735 l0 -105 120 0 120 0 0 105 0 105 -120 0 -120 0 0 -105z"/>
<path d="M7980 10605 l0 -105 120 0 120 0 0 105 0 105 -120 0 -120 0 0 -105z"/>
<path d="M4990 10525 l0 -105 120 0 120 0 0 105 0 105 -120 0 -120 0 0 -105z"/>
<path d="M6500 10360 l0 -120 105 0 105 0 0 120 0 120 -105 0 -105 0 0 -120z"/>
<path d="M6740 10360 l0 -120 105 0 105 0 0 120 0 120 -105 0 -105 0 0 -120z"/>
<path d="M870 10290 l0 -120 105 0 105 0 0 120 0 120 -105 0 -105 0 0 -120z"/>
<path d="M1110 10290 l0 -120 105 0 105 0 0 120 0 120 -105 0 -105 0 0 -120z"/>
<path d="M1350 10290 l0 -120 105 0 105 0 0 120 0 120 -105 0 -105 0 0 -120z"/>
<path d="M4990 10285 l0 -105 120 0 120 0 0 105 0 105 -120 0 -120 0 0 -105z"/>
<path d="M7990 10255 l0 -105 120 0 120 0 0 105 0 105 -120 0 -120 0 0 -105z"/>
<path d="M7000 10085 l0 -105 120 0 120 0 0 105 0 105 -120 0 -120 0 0 -105z"/>
<path d="M6220 10065 l0 -105 120 0 120 0 0 105 0 105 -120 0 -120 0 0 -105z"/>
<path d="M6659 10137 c-145 -77 -142 -281 6 -348 98 -45 210 -3 256 96 76 165
-102 336 -262 252z m170 -54 c40 -30 63 -81 58 -132 -9 -81 -75 -136 -156
-128 -143 15 -178 203 -50 270 42 22 110 18 148 -10z"/>
<path d="M4990 10045 l0 -105 120 0 120 0 0 105 0 105 -120 0 -120 0 0 -105z"/>
<path d="M7990 10015 l0 -105 120 0 120 0 0 105 0 105 -120 0 -120 0 0 -105z"/>
<path d="M7000 9845 l0 -105 120 0 120 0 0 105 0 105 -120 0 -120 0 0 -105z"/>
<path d="M6220 9825 l0 -105 120 0 120 0 0 105 0 105 -120 0 -120 0 0 -105z"/>
<path d="M4990 9805 l0 -105 120 0 120 0 0 105 0 105 -120 0 -120 0 0 -105z"/>
<path d="M620 9795 l0 -105 120 0 120 0 0 105 0 105 -120 0 -120 0 0 -105z"/>
<path d="M7990 9775 l0 -105 120 0 120 0 0 105 0 105 -120 0 -120 0 0 -105z"/>
<path d="M1240 9685 l0 -105 120 0 120 0 0 105 0 105 -120 0 -120 0 0 -105z"/>
<path d="M1510 9685 l0 -105 120 0 120 0 0 105 0 105 -120 0 -120 0 0 -105z"/>
<path d="M6520 9570 l0 -120 105 0 105 0 0 120 0 120 -105 0 -105 0 0 -120z"/>
<path d="M6760 9570 l0 -120 105 0 105 0 0 120 0 120 -105 0 -105 0 0 -120z"/>
<path d="M4990 9565 l0 -105 120 0 120 0 0 105 0 105 -120 0 -120 0 0 -105z"/>
<path d="M620 9555 l0 -105 120 0 120 0 0 105 0 105 -120 0 -120 0 0 -105z"/>
<path d="M7990 9535 l0 -105 120 0 120 0 0 105 0 105 -120 0 -120 0 0 -105z"/>
<path d="M1240 9445 l0 -105 120 0 120 0 0 105 0 105 -120 0 -120 0 0 -105z"/>
<path d="M1510 9445 l0 -105 120 0 120 0 0 105 0 105 -120 0 -120 0 0 -105z"/>
<path d="M2420 9345 l0 -105 120 0 120 0 0 105 0 105 -120 0 -120 0 0 -105z"/>
<path d="M2690 9345 l0 -105 120 0 120 0 0 105 0 105 -120 0 -120 0 0 -105z"/>
<path d="M3660 9335 l0 -105 120 0 120 0 0 105 0 105 -120 0 -120 0 0 -105z"/>
<path d="M3930 9335 l0 -105 120 0 120 0 0 105 0 105 -120 0 -120 0 0 -105z"/>
<path d="M4990 9325 l0 -105 120 0 120 0 0 105 0 105 -120 0 -120 0 0 -105z"/>
<path d="M620 9315 l0 -105 120 0 120 0 0 105 0 105 -120 0 -120 0 0 -105z"/>
<path d="M7990 9295 l0 -105 120 0 120 0 0 105 0 105 -120 0 -120 0 0 -105z"/>
<path d="M1240 9205 l0 -105 120 0 120 0 0 105 0 105 -120 0 -120 0 0 -105z"/>
<path d="M1510 9205 l0 -105 120 0 120 0 0 105 0 105 -120 0 -120 0 0 -105z"/>
<path d="M2420 9105 l0 -105 120 0 120 0 0 105 0 105 -120 0 -120 0 0 -105z"/>
<path d="M2690 9105 l0 -105 120 0 120 0 0 105 0 105 -120 0 -120 0 0 -105z"/>
<path d="M3660 9095 l0 -105 120 0 120 0 0 105 0 105 -120 0 -120 0 0 -105z"/>
<path d="M3930 9095 l0 -105 120 0 120 0 0 105 0 105 -120 0 -120 0 0 -105z"/>
<path d="M6510 9080 l0 -120 105 0 105 0 0 120 0 120 -105 0 -105 0 0 -120z"/>
<path d="M6750 9080 l0 -120 105 0 105 0 0 120 0 120 -105 0 -105 0 0 -120z"/>
<path d="M620 9075 l0 -105 120 0 120 0 0 105 0 105 -120 0 -120 0 0 -105z"/>
<path d="M4990 9075 l0 -105 120 0 120 0 0 105 0 105 -120 0 -120 0 0 -105z"/>
<path d="M7990 9055 l0 -105 120 0 120 0 0 105 0 105 -120 0 -120 0 0 -105z"/>
<path d="M1240 8965 l0 -105 120 0 120 0 0 105 0 105 -120 0 -120 0 0 -105z"/>
<path d="M1510 8965 l0 -105 120 0 120 0 0 105 0 105 -120 0 -120 0 0 -105z"/>
<path d="M620 8835 l0 -105 120 0 120 0 0 105 0 105 -120 0 -120 0 0 -105z"/>
<path d="M4990 8835 l0 -105 120 0 120 0 0 105 0 105 -120 0 -120 0 0 -105z"/>
<path d="M7990 8815 l0 -105 120 0 120 0 0 105 0 105 -120 0 -120 0 0 -105z"/>
<path d="M7010 8805 l0 -105 120 0 120 0 0 105 0 105 -120 0 -120 0 0 -105z"/>
<path d="M6230 8785 l0 -105 120 0 120 0 0 105 0 105 -120 0 -120 0 0 -105z"/>
<path d="M6669 8857 c-145 -77 -142 -281 6 -348 98 -45 210 -3 256 96 76 165
-102 336 -262 252z m170 -54 c40 -30 63 -81 58 -132 -9 -81 -75 -136 -156
-128 -143 15 -178 203 -50 270 42 22 110 18 148 -10z"/>
<path d="M1240 8725 l0 -105 120 0 120 0 0 105 0 105 -120 0 -120 0 0 -105z"/>
<path d="M1510 8725 l0 -105 120 0 120 0 0 105 0 105 -120 0 -120 0 0 -105z"/>
<path d="M620 8595 l0 -105 120 0 120 0 0 105 0 105 -120 0 -120 0 0 -105z"/>
<path d="M7010 8565 l0 -105 120 0 120 0 0 105 0 105 -120 0 -120 0 0 -105z"/>
<path d="M6230 8545 l0 -105 120 0 120 0 0 105 0 105 -120 0 -120 0 0 -105z"/>
<path d="M8000 8505 l0 -105 120 0 120 0 0 105 0 105 -120 0 -120 0 0 -105z"/>
<path d="M1240 8485 l0 -105 120 0 120 0 0 105 0 105 -120 0 -120 0 0 -105z"/>
<path d="M1510 8485 l0 -105 120 0 120 0 0 105 0 105 -120 0 -120 0 0 -105z"/>
<path d="M620 8355 l0 -105 120 0 120 0 0 105 0 105 -120 0 -120 0 0 -105z"/>
<path d="M6530 8290 l0 -120 105 0 105 0 0 120 0 120 -105 0 -105 0 0 -120z"/>
<path d="M6770 8290 l0 -120 105 0 105 0 0 120 0 120 -105 0 -105 0 0 -120z"/>
<path d="M8000 8265 l0 -105 120 0 120 0 0 105 0 105 -120 0 -120 0 0 -105z"/>
<path d="M4990 8175 l0 -105 120 0 120 0 0 105 0 105 -120 0 -120 0 0 -105z"/>
<path d="M2430 8125 l0 -105 120 0 120 0 0 105 0 105 -120 0 -120 0 0 -105z"/>
<path d="M2700 8125 l0 -105 120 0 120 0 0 105 0 105 -120 0 -120 0 0 -105z"/>
<path d="M620 8115 l0 -105 120 0 120 0 0 105 0 105 -120 0 -120 0 0 -105z"/>
<path d="M3670 8115 l0 -105 120 0 120 0 0 105 0 105 -120 0 -120 0 0 -105z"/>
<path d="M3940 8115 l0 -105 120 0 120 0 0 105 0 105 -120 0 -120 0 0 -105z"/>
<path d="M8000 8025 l0 -105 120 0 120 0 0 105 0 105 -120 0 -120 0 0 -105z"/>
<path d="M4990 7935 l0 -105 120 0 120 0 0 105 0 105 -120 0 -120 0 0 -105z"/>
<path d="M2430 7885 l0 -105 120 0 120 0 0 105 0 105 -120 0 -120 0 0 -105z"/>
<path d="M2700 7885 l0 -105 120 0 120 0 0 105 0 105 -120 0 -120 0 0 -105z"/>
<path d="M620 7875 l0 -105 120 0 120 0 0 105 0 105 -120 0 -120 0 0 -105z"/>
<path d="M3670 7875 l0 -105 120 0 120 0 0 105 0 105 -120 0 -120 0 0 -105z"/>
<path d="M3940 7875 l0 -105 120 0 120 0 0 105 0 105 -120 0 -120 0 0 -105z"/>
<path d="M4680 7845 l0 -105 120 0 120 0 0 105 0 105 -120 0 -120 0 0 -105z"/>
<path d="M8000 7785 l0 -105 120 0 120 0 0 105 0 105 -120 0 -120 0 0 -105z"/>
<path d="M1230 7735 l0 -105 120 0 120 0 0 105 0 105 -120 0 -120 0 0 -105z"/>
<path d="M1500 7735 l0 -105 120 0 120 0 0 105 0 105 -120 0 -120 0 0 -105z"/>
<path d="M4990 7695 l0 -105 120 0 120 0 0 105 0 105 -120 0 -120 0 0 -105z"/>
<path d="M6520 7640 l0 -120 105 0 105 0 0 120 0 120 -105 0 -105 0 0 -120z"/>
<path d="M6760 7640 l0 -120 105 0 105 0 0 120 0 120 -105 0 -105 0 0 -120z"/>
<path d="M2430 7645 l0 -105 120 0 120 0 0 105 0 105 -120 0 -120 0 0 -105z"/>
<path d="M2700 7645 l0 -105 120 0 120 0 0 105 0 105 -120 0 -120 0 0 -105z"/>
<path d="M3670 7635 l0 -105 120 0 120 0 0 105 0 105 -120 0 -120 0 0 -105z"/>
<path d="M3940 7635 l0 -105 120 0 120 0 0 105 0 105 -120 0 -120 0 0 -105z"/>
<path d="M620 7625 l0 -105 120 0 120 0 0 105 0 105 -120 0 -120 0 0 -105z"/>
<path d="M4680 7605 l0 -105 120 0 120 0 0 105 0 105 -120 0 -120 0 0 -105z"/>
<path d="M1230 7495 l0 -105 120 0 120 0 0 105 0 105 -120 0 -120 0 0 -105z"/>
<path d="M1500 7495 l0 -105 120 0 120 0 0 105 0 105 -120 0 -120 0 0 -105z"/>
<path d="M4990 7455 l0 -105 120 0 120 0 0 105 0 105 -120 0 -120 0 0 -105z"/>
<path d="M8010 7415 l0 -105 120 0 120 0 0 105 0 105 -120 0 -120 0 0 -105z"/>
<path d="M2430 7405 l0 -105 120 0 120 0 0 105 0 105 -120 0 -120 0 0 -105z"/>
<path d="M2700 7405 l0 -105 120 0 120 0 0 105 0 105 -120 0 -120 0 0 -105z"/>
<path d="M3670 7395 l0 -105 120 0 120 0 0 105 0 105 -120 0 -120 0 0 -105z"/>
<path d="M3940 7395 l0 -105 120 0 120 0 0 105 0 105 -120 0 -120 0 0 -105z"/>
<path d="M620 7385 l0 -105 120 0 120 0 0 105 0 105 -120 0 -120 0 0 -105z"/>
<path d="M4680 7365 l0 -105 120 0 120 0 0 105 0 105 -120 0 -120 0 0 -105z"/>
<path d="M7020 7365 l0 -105 120 0 120 0 0 105 0 105 -120 0 -120 0 0 -105z"/>
<path d="M6240 7345 l0 -105 120 0 120 0 0 105 0 105 -120 0 -120 0 0 -105z"/>
<path d="M6679 7417 c-145 -77 -142 -281 6 -348 98 -45 210 -3 256 96 76 165
-102 336 -262 252z m170 -54 c40 -30 63 -81 58 -132 -9 -81 -75 -136 -156
-128 -143 15 -178 203 -50 270 42 22 110 18 148 -10z"/>
<path d="M1230 7255 l0 -105 120 0 120 0 0 105 0 105 -120 0 -120 0 0 -105z"/>
<path d="M1500 7255 l0 -105 120 0 120 0 0 105 0 105 -120 0 -120 0 0 -105z"/>
<path d="M4990 7215 l0 -105 120 0 120 0 0 105 0 105 -120 0 -120 0 0 -105z"/>
<path d="M8010 7175 l0 -105 120 0 120 0 0 105 0 105 -120 0 -120 0 0 -105z"/>
<path d="M2430 7165 l0 -105 120 0 120 0 0 105 0 105 -120 0 -120 0 0 -105z"/>
<path d="M2700 7165 l0 -105 120 0 120 0 0 105 0 105 -120 0 -120 0 0 -105z"/>
<path d="M3670 7155 l0 -105 120 0 120 0 0 105 0 105 -120 0 -120 0 0 -105z"/>
<path d="M3940 7155 l0 -105 120 0 120 0 0 105 0 105 -120 0 -120 0 0 -105z"/>
<path d="M7020 7125 l0 -105 120 0 120 0 0 105 0 105 -120 0 -120 0 0 -105z"/>
<path d="M6240 7105 l0 -105 120 0 120 0 0 105 0 105 -120 0 -120 0 0 -105z"/>
<path d="M1230 7015 l0 -105 120 0 120 0 0 105 0 105 -120 0 -120 0 0 -105z"/>
<path d="M1500 7015 l0 -105 120 0 120 0 0 105 0 105 -120 0 -120 0 0 -105z"/>
<path d="M620 6955 l0 -105 120 0 120 0 0 105 0 105 -120 0 -120 0 0 -105z"/>
<path d="M8010 6935 l0 -105 120 0 120 0 0 105 0 105 -120 0 -120 0 0 -105z"/>
<path d="M6540 6850 l0 -120 105 0 105 0 0 120 0 120 -105 0 -105 0 0 -120z"/>
<path d="M6780 6850 l0 -120 105 0 105 0 0 120 0 120 -105 0 -105 0 0 -120z"/>
<path d="M1230 6775 l0 -105 120 0 120 0 0 105 0 105 -120 0 -120 0 0 -105z"/>
<path d="M1500 6775 l0 -105 120 0 120 0 0 105 0 105 -120 0 -120 0 0 -105z"/>
<path d="M620 6715 l0 -105 120 0 120 0 0 105 0 105 -120 0 -120 0 0 -105z"/>
<path d="M8010 6695 l0 -105 120 0 120 0 0 105 0 105 -120 0 -120 0 0 -105z"/>
<path d="M620 6475 l0 -105 120 0 120 0 0 105 0 105 -120 0 -120 0 0 -105z"/>
<path d="M2430 6395 l0 -105 120 0 120 0 0 105 0 105 -120 0 -120 0 0 -105z"/>
<path d="M2700 6395 l0 -105 120 0 120 0 0 105 0 105 -120 0 -120 0 0 -105z"/>
<path d="M5630 6280 l0 -120 105 0 105 0 0 120 0 120 -105 0 -105 0 0 -120z"/>
<path d="M5870 6280 l0 -120 105 0 105 0 0 120 0 120 -105 0 -105 0 0 -120z"/>
<path d="M6110 6280 l0 -120 105 0 105 0 0 120 0 120 -105 0 -105 0 0 -120z"/>
<path d="M6350 6280 l0 -120 105 0 105 0 0 120 0 120 -105 0 -105 0 0 -120z"/>
<path d="M6590 6280 l0 -120 105 0 105 0 0 120 0 120 -105 0 -105 0 0 -120z"/>
<path d="M6840 6280 l0 -120 105 0 105 0 0 120 0 120 -105 0 -105 0 0 -120z"/>
<path d="M7080 6280 l0 -120 105 0 105 0 0 120 0 120 -105 0 -105 0 0 -120z"/>
<path d="M7320 6280 l0 -120 105 0 105 0 0 120 0 120 -105 0 -105 0 0 -120z"/>
<path d="M7560 6280 l0 -120 105 0 105 0 0 120 0 120 -105 0 -105 0 0 -120z"/>
<path d="M4700 6285 l0 -105 120 0 120 0 0 105 0 105 -120 0 -120 0 0 -105z"/>
<path d="M620 6235 l0 -105 120 0 120 0 0 105 0 105 -120 0 -120 0 0 -105z"/>
<path d="M3710 6205 l0 -105 120 0 120 0 0 105 0 105 -120 0 -120 0 0 -105z"/>
<path d="M3980 6205 l0 -105 120 0 120 0 0 105 0 105 -120 0 -120 0 0 -105z"/>
<path d="M2430 6155 l0 -105 120 0 120 0 0 105 0 105 -120 0 -120 0 0 -105z"/>
<path d="M2700 6155 l0 -105 120 0 120 0 0 105 0 105 -120 0 -120 0 0 -105z"/>
<path d="M4700 6045 l0 -105 120 0 120 0 0 105 0 105 -120 0 -120 0 0 -105z"/>
<path d="M620 5995 l0 -105 120 0 120 0 0 105 0 105 -120 0 -120 0 0 -105z"/>
<path d="M3710 5965 l0 -105 120 0 120 0 0 105 0 105 -120 0 -120 0 0 -105z"/>
<path d="M3980 5965 l0 -105 120 0 120 0 0 105 0 105 -120 0 -120 0 0 -105z"/>
<path d="M1230 5945 l0 -105 120 0 120 0 0 105 0 105 -120 0 -120 0 0 -105z"/>
<path d="M1500 5945 l0 -105 120 0 120 0 0 105 0 105 -120 0 -120 0 0 -105z"/>
<path d="M2430 5915 l0 -105 120 0 120 0 0 105 0 105 -120 0 -120 0 0 -105z"/>
<path d="M2700 5915 l0 -105 120 0 120 0 0 105 0 105 -120 0 -120 0 0 -105z"/>
<path d="M4700 5805 l0 -105 120 0 120 0 0 105 0 105 -120 0 -120 0 0 -105z"/>
<path d="M620 5755 l0 -105 120 0 120 0 0 105 0 105 -120 0 -120 0 0 -105z"/>
<path d="M3710 5725 l0 -105 120 0 120 0 0 105 0 105 -120 0 -120 0 0 -105z"/>
<path d="M3980 5725 l0 -105 120 0 120 0 0 105 0 105 -120 0 -120 0 0 -105z"/>
<path d="M1230 5705 l0 -105 120 0 120 0 0 105 0 105 -120 0 -120 0 0 -105z"/>
<path d="M1500 5705 l0 -105 120 0 120 0 0 105 0 105 -120 0 -120 0 0 -105z"/>
<path d="M2430 5675 l0 -105 120 0 120 0 0 105 0 105 -120 0 -120 0 0 -105z"/>
<path d="M2700 5675 l0 -105 120 0 120 0 0 105 0 105 -120 0 -120 0 0 -105z"/>
<path d="M4700 5565 l0 -105 120 0 120 0 0 105 0 105 -120 0 -120 0 0 -105z"/>
<path d="M620 5515 l0 -105 120 0 120 0 0 105 0 105 -120 0 -120 0 0 -105z"/>
<path d="M3710 5485 l0 -105 120 0 120 0 0 105 0 105 -120 0 -120 0 0 -105z"/>
<path d="M3980 5485 l0 -105 120 0 120 0 0 105 0 105 -120 0 -120 0 0 -105z"/>
<path d="M1230 5465 l0 -105 120 0 120 0 0 105 0 105 -120 0 -120 0 0 -105z"/>
<path d="M1500 5465 l0 -105 120 0 120 0 0 105 0 105 -120 0 -120 0 0 -105z"/>
<path d="M4700 5325 l0 -105 120 0 120 0 0 105 0 105 -120 0 -120 0 0 -105z"/>
<path d="M620 5275 l0 -105 120 0 120 0 0 105 0 105 -120 0 -120 0 0 -105z"/>
<path d="M3710 5245 l0 -105 120 0 120 0 0 105 0 105 -120 0 -120 0 0 -105z"/>
<path d="M3980 5245 l0 -105 120 0 120 0 0 105 0 105 -120 0 -120 0 0 -105z"/>
<path d="M1230 5225 l0 -105 120 0 120 0 0 105 0 105 -120 0 -120 0 0 -105z"/>
<path d="M1500 5225 l0 -105 120 0 120 0 0 105 0 105 -120 0 -120 0 0 -105z"/>
<path d="M620 5035 l0 -105 120 0 120 0 0 105 0 105 -120 0 -120 0 0 -105z"/>
<path d="M620 4785 l0 -105 120 0 120 0 0 105 0 105 -120 0 -120 0 0 -105z"/>
<path d="M4710 4785 l0 -105 120 0 120 0 0 105 0 105 -120 0 -120 0 0 -105z"/>
<path d="M2090 4750 l0 -120 105 0 105 0 0 120 0 120 -105 0 -105 0 0 -120z"/>
<path d="M2330 4750 l0 -120 105 0 105 0 0 120 0 120 -105 0 -105 0 0 -120z"/>
<path d="M2570 4750 l0 -120 105 0 105 0 0 120 0 120 -105 0 -105 0 0 -120z"/>
<path d="M2810 4750 l0 -120 105 0 105 0 0 120 0 120 -105 0 -105 0 0 -120z"/>
<path d="M3050 4750 l0 -120 105 0 105 0 0 120 0 120 -105 0 -105 0 0 -120z"/>
<path d="M620 4545 l0 -105 120 0 120 0 0 105 0 105 -120 0 -120 0 0 -105z"/>
<path d="M4710 4535 l0 -105 120 0 120 0 0 105 0 105 -120 0 -120 0 0 -105z"/>
<path d="M2090 4480 l0 -120 105 0 105 0 0 120 0 120 -105 0 -105 0 0 -120z"/>
<path d="M2330 4480 l0 -120 105 0 105 0 0 120 0 120 -105 0 -105 0 0 -120z"/>
<path d="M2570 4480 l0 -120 105 0 105 0 0 120 0 120 -105 0 -105 0 0 -120z"/>
<path d="M2810 4480 l0 -120 105 0 105 0 0 120 0 120 -105 0 -105 0 0 -120z"/>
<path d="M3050 4480 l0 -120 105 0 105 0 0 120 0 120 -105 0 -105 0 0 -120z"/>
<path d="M1260 4315 l0 -105 120 0 120 0 0 105 0 105 -120 0 -120 0 0 -105z"/>
<path d="M1530 4315 l0 -105 120 0 120 0 0 105 0 105 -120 0 -120 0 0 -105z"/>
<path d="M620 4305 l0 -105 120 0 120 0 0 105 0 105 -120 0 -120 0 0 -105z"/>
<path d="M4710 4295 l0 -105 120 0 120 0 0 105 0 105 -120 0 -120 0 0 -105z"/>
<path d="M1260 4075 l0 -105 120 0 120 0 0 105 0 105 -120 0 -120 0 0 -105z"/>
<path d="M1530 4075 l0 -105 120 0 120 0 0 105 0 105 -120 0 -120 0 0 -105z"/>
<path d="M620 4065 l0 -105 120 0 120 0 0 105 0 105 -120 0 -120 0 0 -105z"/>
<path d="M3740 4065 l0 -105 120 0 120 0 0 105 0 105 -120 0 -120 0 0 -105z"/>
<path d="M4010 4065 l0 -105 120 0 120 0 0 105 0 105 -120 0 -120 0 0 -105z"/>
<path d="M4710 4055 l0 -105 120 0 120 0 0 105 0 105 -120 0 -120 0 0 -105z"/>
<path d="M1260 3835 l0 -105 120 0 120 0 0 105 0 105 -120 0 -120 0 0 -105z"/>
<path d="M1530 3835 l0 -105 120 0 120 0 0 105 0 105 -120 0 -120 0 0 -105z"/>
<path d="M620 3825 l0 -105 120 0 120 0 0 105 0 105 -120 0 -120 0 0 -105z"/>
<path d="M3740 3825 l0 -105 120 0 120 0 0 105 0 105 -120 0 -120 0 0 -105z"/>
<path d="M4010 3825 l0 -105 120 0 120 0 0 105 0 105 -120 0 -120 0 0 -105z"/>
<path d="M4710 3815 l0 -105 120 0 120 0 0 105 0 105 -120 0 -120 0 0 -105z"/>
<path d="M1260 3595 l0 -105 120 0 120 0 0 105 0 105 -120 0 -120 0 0 -105z"/>
<path d="M1530 3595 l0 -105 120 0 120 0 0 105 0 105 -120 0 -120 0 0 -105z"/>
<path d="M3740 3585 l0 -105 120 0 120 0 0 105 0 105 -120 0 -120 0 0 -105z"/>
<path d="M4010 3585 l0 -105 120 0 120 0 0 105 0 105 -120 0 -120 0 0 -105z"/>
<path d="M4710 3575 l0 -105 120 0 120 0 0 105 0 105 -120 0 -120 0 0 -105z"/>
<path d="M2100 3480 l0 -120 105 0 105 0 0 120 0 120 -105 0 -105 0 0 -120z"/>
<path d="M2340 3480 l0 -120 105 0 105 0 0 120 0 120 -105 0 -105 0 0 -120z"/>
<path d="M2580 3480 l0 -120 105 0 105 0 0 120 0 120 -105 0 -105 0 0 -120z"/>
<path d="M2820 3480 l0 -120 105 0 105 0 0 120 0 120 -105 0 -105 0 0 -120z"/>
<path d="M3060 3480 l0 -120 105 0 105 0 0 120 0 120 -105 0 -105 0 0 -120z"/>
<path d="M620 3475 l0 -105 120 0 120 0 0 105 0 105 -120 0 -120 0 0 -105z"/>
<path d="M3740 3345 l0 -105 120 0 120 0 0 105 0 105 -120 0 -120 0 0 -105z"/>
<path d="M4010 3345 l0 -105 120 0 120 0 0 105 0 105 -120 0 -120 0 0 -105z"/>
<path d="M620 3235 l0 -105 120 0 120 0 0 105 0 105 -120 0 -120 0 0 -105z"/>
<path d="M2100 3210 l0 -120 105 0 105 0 0 120 0 120 -105 0 -105 0 0 -120z"/>
<path d="M2340 3210 l0 -120 105 0 105 0 0 120 0 120 -105 0 -105 0 0 -120z"/>
<path d="M2580 3210 l0 -120 105 0 105 0 0 120 0 120 -105 0 -105 0 0 -120z"/>
<path d="M2820 3210 l0 -120 105 0 105 0 0 120 0 120 -105 0 -105 0 0 -120z"/>
<path d="M3060 3210 l0 -120 105 0 105 0 0 120 0 120 -105 0 -105 0 0 -120z"/>
<path d="M620 2905 l0 -105 120 0 120 0 0 105 0 105 -120 0 -120 0 0 -105z"/>
<path d="M1270 2895 l0 -105 120 0 120 0 0 105 0 105 -120 0 -120 0 0 -105z"/>
<path d="M1540 2895 l0 -105 120 0 120 0 0 105 0 105 -120 0 -120 0 0 -105z"/>
<path d="M4005 2809 c-260 -20 -511 -105 -606 -206 -70 -73 -85 -133 -50 -201
61 -119 253 -212 536 -258 154 -25 496 -25 650 0 389 64 607 217 544 383 -5
15 -29 47 -52 71 -157 162 -568 247 -1022 211z m535 -65 c300 -52 500 -162
500 -277 0 -26 -39 -89 -73 -118 -38 -33 -159 -88 -247 -113 -172 -48 -269
-60 -510 -60 -173 0 -248 4 -325 18 -222 40 -384 105 -454 181 -65 71 -66 117
-5 185 88 97 310 174 583 200 124 12 420 3 531 -16z"/>
<path d="M620 2665 l0 -105 120 0 120 0 0 105 0 105 -120 0 -120 0 0 -105z"/>
<path d="M1270 2655 l0 -105 120 0 120 0 0 105 0 105 -120 0 -120 0 0 -105z"/>
<path d="M1540 2655 l0 -105 120 0 120 0 0 105 0 105 -120 0 -120 0 0 -105z"/>
<path d="M620 2425 l0 -105 120 0 120 0 0 105 0 105 -120 0 -120 0 0 -105z"/>
<path d="M1270 2415 l0 -105 120 0 120 0 0 105 0 105 -120 0 -120 0 0 -105z"/>
<path d="M1540 2415 l0 -105 120 0 120 0 0 105 0 105 -120 0 -120 0 0 -105z"/>
<path d="M2340 2370 l0 -120 105 0 105 0 0 120 0 120 -105 0 -105 0 0 -120z"/>
<path d="M2580 2370 l0 -120 105 0 105 0 0 120 0 120 -105 0 -105 0 0 -120z"/>
<path d="M2820 2370 l0 -120 105 0 105 0 0 120 0 120 -105 0 -105 0 0 -120z"/>
<path d="M620 2185 l0 -105 120 0 120 0 0 105 0 105 -120 0 -120 0 0 -105z"/>
<path d="M2340 2100 l0 -120 105 0 105 0 0 120 0 120 -105 0 -105 0 0 -120z"/>
<path d="M2580 2100 l0 -120 105 0 105 0 0 120 0 120 -105 0 -105 0 0 -120z"/>
<path d="M2820 2100 l0 -120 105 0 105 0 0 120 0 120 -105 0 -105 0 0 -120z"/>
<path d="M1000 1900 l0 -120 105 0 105 0 0 120 0 120 -105 0 -105 0 0 -120z"/>
<path d="M1240 1900 l0 -120 105 0 105 0 0 120 0 120 -105 0 -105 0 0 -120z"/>
<path d="M1480 1900 l0 -120 105 0 105 0 0 120 0 120 -105 0 -105 0 0 -120z"/>
<path d="M2000 1545 l0 -105 120 0 120 0 0 105 0 105 -120 0 -120 0 0 -105z"/>
<path d="M3170 1545 l0 -105 120 0 120 0 0 105 0 105 -120 0 -120 0 0 -105z"/>
<path d="M2000 1305 l0 -105 120 0 120 0 0 105 0 105 -120 0 -120 0 0 -105z"/>
<path d="M3170 1305 l0 -105 120 0 120 0 0 105 0 105 -120 0 -120 0 0 -105z"/>
<path d="M2000 1065 l0 -105 120 0 120 0 0 105 0 105 -120 0 -120 0 0 -105z"/>
<path d="M3170 1065 l0 -105 120 0 120 0 0 105 0 105 -120 0 -120 0 0 -105z"/>
<path d="M2000 825 l0 -105 120 0 120 0 0 105 0 105 -120 0 -120 0 0 -105z"/>
<path d="M3170 825 l0 -105 120 0 120 0 0 105 0 105 -120 0 -120 0 0 -105z"/>
<path d="M2633 838 c-18 -23 -144 -391 -139 -405 3 -7 19 -13 35 -13 l31 0 2
-187 3 -188 85 0 85 0 3 188 2 187 31 0 c16 0 32 6 35 13 5 14 -121 382 -138
405 -6 6 -14 12 -18 12 -4 0 -12 -6 -17 -12z m69 -232 l47 -135 -27 -3 -27 -3
-3 -187 -2 -188 -40 0 -40 0 -2 188 -3 187 -27 3 -27 3 47 135 c26 73 49 134
52 134 3 0 26 -60 52 -134z"/>
<path d="M2000 585 l0 -105 120 0 120 0 0 105 0 105 -120 0 -120 0 0 -105z"/>
<path d="M3170 585 l0 -105 120 0 120 0 0 105 0 105 -120 0 -120 0 0 -105z"/>
<path d="M3450 330 l0 -120 105 0 105 0 0 120 0 120 -105 0 -105 0 0 -120z"/>
<path d="M3690 330 l0 -120 105 0 105 0 0 120 0 120 -105 0 -105 0 0 -120z"/>
<path d="M3930 330 l0 -120 105 0 105 0 0 120 0 120 -105 0 -105 0 0 -120z"/>
<path d="M4170 330 l0 -120 105 0 105 0 0 120 0 120 -105 0 -105 0 0 -120z"/>
<path d="M4410 330 l0 -120 105 0 105 0 0 120 0 120 -105 0 -105 0 0 -120z"/>
<path d="M800 320 l0 -120 105 0 105 0 0 120 0 120 -105 0 -105 0 0 -120z"/>
<path d="M1040 320 l0 -120 105 0 105 0 0 120 0 120 -105 0 -105 0 0 -120z"/>
<path d="M1280 320 l0 -120 105 0 105 0 0 120 0 120 -105 0 -105 0 0 -120z"/>
<path d="M1520 320 l0 -120 105 0 105 0 0 120 0 120 -105 0 -105 0 0 -120z"/>
<path d="M1760 320 l0 -120 105 0 105 0 0 120 0 120 -105 0 -105 0 0 -120z"/>
</g>
</svg>
